# xmcd
#
# Track frame offsets:
#	150
#	16847
#	33673
#	50544
#	67881
#	84159
#	102855
#	125132
#
# Disc length: 2053 seconds
#
# Revision: 0
# Processed by: cddbd v1.5.2PL0 Copyright (c) Steve Scherf et al.
# Submitted via: dBpowerAMP V4.0
#
DISCID=5f080308
DTITLE=Blas Blues Band - Pocketful of Candies
DYEAR=1999
DGENRE=Blues
TTITLE0=Loverman
TTITLE1=Black nite fallin´
TTITLE2=Cherry red
TTITLE3=Blues this mornin´
TTITLE4=Wild board stomp
TTITLE5=Be kind
TTITLE6=Call me Lenoir
TTITLE7=Blue and lonesome
EXTD=
EXTT0=
EXTT1=
EXTT2=
EXTT3=
EXTT4=
EXTT5=
EXTT6=
EXTT7=
PLAYORDER=
